{
  "asset": {
    "generator": "BabylonJS",
    "version": "2.0"
  },
  "extensionsUsed": [
    "KHR_materials_unlit"
  ],
  "extensions": {},
  "buffers": [
    {
      "byteLength": 40168,
      "uri": "Wizard_Hat_v3_Merged.bin"
    }
  ],
  "nodes": [
    {
      "name": "Wizard's Hat",
      "mesh": 0,
      "rotation": [
        0,
        1,
        0,
        0
      ]
    }
  ],
  "meshes": [
    {
      "primitives": [
        {
          "attributes": {
            "POSITION": 0,
            "NORMAL": 1,
            "COLOR_0": 2
          },
          "indices": 3,
          "material": 0
        }
      ]
    }
  ],
  "scenes": [
    {
      "nodes": [
        0
      ]
    }
  ],
  "scene": 0,
  "bufferViews": [
    {
      "buffer": 0,
      "byteLength": 8508,
      "name": "position - Wizard's Hat",
      "byteStride": 12
    },
    {
      "buffer": 0,
      "byteLength": 8508,
      "byteOffset": 8508,
      "name": "normal - Wizard's Hat",
      "byteStride": 12
    },
    {
      "buffer": 0,
      "byteLength": 11344,
      "byteOffset": 17016,
      "name": "color - Wizard's Hat",
      "byteStride": 16
    },
    {
      "buffer": 0,
      "byteLength": 11808,
      "byteOffset": 28360,
      "name": "Indices - Wizard's Hat"
    }
  ],
  "accessors": [
    {
      "name": "position - Wizard's Hat",
      "bufferView": 0,
      "componentType": 5126,
      "count": 709,
      "type": "VEC3",
      "min": [
        -1,
        -0.10999999940395355,
        -1
      ],
      "max": [
        1,
        1.10664701461792,
        0.949999988079071
      ],
      "byteOffset": 0
    },
    {
      "name": "normal - Wizard's Hat",
      "bufferView": 1,
      "componentType": 5126,
      "count": 709,
      "type": "VEC3",
      "byteOffset": 0
    },
    {
      "name": "color - Wizard's Hat",
      "bufferView": 2,
      "componentType": 5126,
      "count": 709,
      "type": "VEC4",
      "byteOffset": 0
    },
    {
      "name": "indices - Wizard's Hat",
      "bufferView": 3,
      "componentType": 5125,
      "count": 2952,
      "type": "SCALAR",
      "byteOffset": 0
    }
  ],
  "materials": [
    {
      "name": "default material",
      "pbrMetallicRoughness": {
        "baseColorFactor": [
          0.5,
          0.5,
          0.5,
          1
        ],
        "metallicFactor": 0,
        "roughnessFactor": 0.3288090062081349
      }
    },
    {
      "name": "pointMaterial",
      "doubleSided": true,
      "emissiveFactor": [
        1,
        1,
        1
      ],
      "pbrMetallicRoughness": {
        "baseColorFactor": [
          0.5,
          0.5,
          0.5,
          1
        ],
        "metallicFactor": 0,
        "roughnessFactor": 0.3288090062081349
      },
      "extensions": {
        "KHR_materials_unlit": {}
      }
    }
  ]
}